<?xml version="1.0" encoding="UTF-8" standalone="no" ?>
<!DOCTYPE svg PUBLIC "-//W3C//DTD SVG 1.1//EN" "http://www.w3.org/Graphics/SVG/1.1/DTD/svg11.dtd">
<svg xmlns="http://www.w3.org/2000/svg" xmlns:xlink="http://www.w3.org/1999/xlink" version="1.1" width="512" height="512" viewBox="0 0 500 500" xml:space="preserve">
<desc>Created with Fabric.js 5.3.0</desc>
<defs>
</defs>
<g transform="matrix(0.1926148183 0 0 0.1926148183 248.049183105 247.1055033891)" id="sMyguVDiNYrYXJBSByZ5B"  >
<g style=""   >
		<g transform="matrix(5.6433408578 0 0 5.6433408578 0 0)" id="w1X8wTTkLAGIl-th6n726"  >
<linearGradient id="SVGID_0" gradientUnits="userSpaceOnUse" gradientTransform="matrix(1 0 0 1 -34.5 -34.5)"  x1="34.489" y1="256" x2="478.926" y2="256">
<stop offset="0%" style="stop-color:rgb(255,255,255);stop-opacity: 1"/>
<stop offset="100%" style="stop-color:rgb(247,247,247);stop-opacity: 1"/>
</linearGradient>
<path style="stroke: none; stroke-width: 1; stroke-dasharray: none; stroke-linecap: butt; stroke-dashoffset: 0; stroke-linejoin: miter; stroke-miterlimit: 4; fill: url(#SVGID_0); fill-rule: nonzero; opacity: 1;"  transform=" translate(-221.5, -221.5)" d="M 0 221.5 C 0 99.16893 99.16893 0 221.5 0 C 343.83107 0 443 99.16893 443 221.5 C 443 343.83107 343.83107 443 221.5 443 C 99.16893 443 0 343.83107 0 221.5 z" stroke-linecap="round" />
</g>
		<g transform="matrix(5.6433408578 0 0 5.6433408578 0 -5.6433408578)" id="XlVaDq-unrD4bbZVHPEm2"  >
<path style="stroke: none; stroke-width: 1; stroke-dasharray: none; stroke-linecap: butt; stroke-dashoffset: 0; stroke-linejoin: miter; stroke-miterlimit: 4; fill: rgb(184,66,151); fill-rule: nonzero; opacity: 1;"  transform=" translate(-256, -255)" d="M 256 287.2 C 273.6 287.2 288.2 272.59999999999997 288.2 255 C 288.2 237.40000000000003 273.59999999999997 222.8 256 222.8 C 238.40000000000003 222.8 223.8 237.4 223.8 255 C 223.8 272.6 238.4 287.2 256 287.2 z" stroke-linecap="round" />
</g>
		<g transform="matrix(5.6433408578 0 0 5.6433408578 312.6250049146 -228.8374717833)" id="cn0jNxoryA9Yuj3mhVgia"  >
<path style="stroke: none; stroke-width: 1; stroke-dasharray: none; stroke-linecap: butt; stroke-dashoffset: 0; stroke-linejoin: miter; stroke-miterlimit: 4; fill: rgb(41,45,51); fill-rule: nonzero; opacity: 1;"  transform=" translate(-311.3971508709, -215.45)" d="M 256 60.8 C 226.7 60.8 197.5 67.6 171.1 80.3 L 171.1 122.3 C 194.5 107.7 221.8 98.9 250.1 97.9 C 278.4 96.9 305.7 102.80000000000001 331.1 116.4 C 356.50000000000006 130 377 149.60000000000002 391.6 173 C 406.20000000000005 196.39999999999998 415 224.7 415 252 L 415 370.1 C 435.5 340.8 448.2 306.70000000000005 451.1 270.6 C 454.00000000000006 234.5 446.20000000000005 199.40000000000003 429.6 167.20000000000002 C 413 135 388.6 108.70000000000002 357.40000000000003 90.10000000000002 C 327.2 70.6 292.1 60.8 256 60.8 z" stroke-linecap="round" />
</g>
		<g transform="matrix(5.6433408578 0 0 5.6433408578 -158.058220818 232.3557669047)" id="uC-_ww6L1tyfQwhdaoS7K"  >
<path style="stroke: none; stroke-width: 1; stroke-dasharray: none; stroke-linecap: butt; stroke-dashoffset: 0; stroke-linejoin: miter; stroke-miterlimit: 4; fill: rgb(41,45,51); fill-rule: nonzero; opacity: 1;"  transform=" translate(-227.992083271, -297.1734418955)" d="M 256 415.1 C 215 415.1 176 399.5 146.7 371.20000000000005 C 117.39999999999998 342.9000000000001 99.89999999999999 304.80000000000007 97.89999999999999 263.90000000000003 L 97.89999999999999 142.90000000000003 C 69.6 182.90000000000003 56.89999999999999 231.70000000000005 62.79999999999999 280.5 C 68.69999999999999 329.29999999999995 93.1 374.2 130.1 405.4 C 167.1 436.59999999999997 215 453.2 264.79999999999995 451.29999999999995 C 314.59999999999997 449.29999999999995 360.4 428.9 394.59999999999997 393.69999999999993 L 394.59999999999997 334.19999999999993 C 380.9 358.5999999999999 360.4 379.0999999999999 336.09999999999997 393.69999999999993 C 311.59999999999997 407.29999999999995 284.29999999999995 415.0999999999999 255.99999999999997 415.0999999999999 z" stroke-linecap="round" />
</g>
		<g transform="matrix(5.6433408578 0 0 5.6433408578 3.1805292687 112.2564516889)" id="o6Kc7fNCGWj1fgH-rP7O-"  >
<path style="stroke: none; stroke-width: 1; stroke-dasharray: none; stroke-linecap: butt; stroke-dashoffset: 0; stroke-linejoin: miter; stroke-miterlimit: 4; fill: rgb(41,45,51); fill-rule: nonzero; opacity: 1;"  transform=" translate(-256.5635897864, -275.8918432393)" d="M 256 306.7 C 244.3 306.7 232.6 302.8 223.8 296 L 223.8 333.1 C 240.4 339.90000000000003 259.90000000000003 341.90000000000003 277.5 337 C 295.09999999999997 332.09999999999997 310.7 322.4 322.4 308.7 C 334.09999999999997 295 340.9 277.5 341.9 258.9 C 342.9 240.29999999999995 338 222.79999999999998 327.29999999999995 207.2 C 317.49999999999994 191.6 301.9 180.89999999999998 285.29999999999995 174 C 267.69999999999993 168.1 249.19999999999996 167.2 231.59999999999997 173 C 213.99999999999997 177.9 198.39999999999998 189.6 187.69999999999996 204.2 C 176.99999999999994 218.79999999999998 171.09999999999997 236.39999999999998 171.09999999999997 254.89999999999998 L 171.09999999999997 363.2 C 180.89999999999998 371 191.59999999999997 377.8 203.29999999999995 382.7 L 203.29999999999995 253.1 C 203.29999999999995 242.4 206.19999999999996 232.6 212.09999999999997 223.79999999999998 C 217.99999999999997 214.99999999999997 225.79999999999995 208.2 235.49999999999997 204.29999999999998 C 245.29999999999998 200.39999999999998 255.99999999999997 199.39999999999998 265.79999999999995 201.39999999999998 C 276.49999999999994 203.39999999999998 285.29999999999995 208.2 293.09999999999997 215.99999999999997 C 300.9 223.79999999999995 305.79999999999995 232.59999999999997 307.7 243.29999999999998 C 309.7 253.99999999999997 308.7 263.79999999999995 304.8 273.59999999999997 C 300.90000000000003 283.4 294.1 291.2 285.3 296.99999999999994 C 276.5 302.7999999999999 266.7 305.79999999999995 256 306.69999999999993 z" stroke-linecap="round" />
</g>
		<g transform="matrix(5.6433408578 0 0 5.6433408578 -2.2839863144 -74.0244972577)" id="Vxq38iSc365DH5TbbfFam"  >
<path style="stroke: none; stroke-width: 1; stroke-dasharray: none; stroke-linecap: butt; stroke-dashoffset: 0; stroke-linejoin: miter; stroke-miterlimit: 4; fill: rgb(41,45,51); fill-rule: nonzero; opacity: 1;"  transform=" translate(-255.5952776251, -242.8828590859)" d="M 150.6 343.8 L 150.6 255 C 150.6 232.6 157.4 211.1 171.1 192.5 C 183.79999999999998 174.9 202.29999999999998 161.3 223.8 154.4 C 245.30000000000004 147.5 267.7 147.6 289.20000000000005 154.4 C 310.7000000000001 161.20000000000002 329.20000000000005 174.9 341.90000000000003 192.5 C 354.6 210.1 362.40000000000003 232.5 362.40000000000003 255 C 362.40000000000003 277.5 355.6 298.9 341.90000000000003 317.5 C 329.20000000000005 336 310.70000000000005 348.7 289.20000000000005 355.6 C 267.70000000000005 362.40000000000003 245.30000000000004 362.40000000000003 223.80000000000004 355.6 L 223.80000000000004 389.8 C 248.20000000000005 395.7 272.6 394.7 296.00000000000006 387.8 C 319.40000000000003 381 340.90000000000003 367.3 357.50000000000006 349.7 C 374.1000000000001 331.2 385.80000000000007 309.7 390.70000000000005 285.29999999999995 C 395.6 260.8999999999999 394.6 236.49999999999994 386.80000000000007 213.09999999999997 C 379.0000000000001 189.7 365.30000000000007 169.19999999999996 346.80000000000007 152.59999999999997 C 328.30000000000007 135.99999999999997 305.80000000000007 125.29999999999997 281.4000000000001 120.39999999999996 C 257.0000000000001 115.49999999999996 232.60000000000008 117.49999999999996 209.2000000000001 125.29999999999997 C 185.80000000000013 133.09999999999997 165.3000000000001 147.69999999999996 149.7000000000001 166.29999999999995 L 149.7000000000001 92.1 C 139.0000000000001 99.89999999999999 127.3000000000001 108.69999999999999 117.5000000000001 118.39999999999999 L 117.5000000000001 258.9 C 118.4000000000001 290.2 130.1000000000001 319.4 150.6000000000001 343.79999999999995 z" stroke-linecap="round" />
</g>
</g>
</g>
<g transform="matrix(5.7889847784 0 0 5.7889847784 213.6687455194 264.2772155916)" id="eTe-8g8Wz20dTckKeL7yh"  >
<path style="stroke: rgb(255,255,255); stroke-width: 2; stroke-dasharray: none; stroke-linecap: butt; stroke-dashoffset: 0; stroke-linejoin: miter; stroke-miterlimit: 4; fill: rgb(41,45,51); fill-rule: nonzero; opacity: 1;"  transform=" translate(0, 0)" d="M -35.85118 -36.67922 C -35.85118 -37.466 -35.37724 -38.17531 -34.650349999999996 -38.4764 C -33.92346 -38.77749 -33.086769999999994 -38.611059999999995 -32.53044 -38.054719999999996 L 34.132459999999995 28.608179999999997 L 34.132459999999995 28.608179999999997 C 35.810539999999996 30.28626 36.312529999999995 32.80995 35.40436 35.00246 C 34.49619 37.19497 32.35671 38.62453 29.983549999999997 38.62453 L -21.427200000000003 38.62453 L -21.427200000000003 38.62453 C -29.39335 38.62453 -35.85119 32.16669 -35.85119 24.20054 z" stroke-linecap="round" />
</g>
<g transform="matrix(1 0 0 1 168.619351214 325.9155747251)" id="xQNL6EAG4icUdB4yZT_r4"  >
<path style="stroke: rgb(255,255,255); stroke-width: 8; stroke-dasharray: none; stroke-linecap: butt; stroke-dashoffset: 0; stroke-linejoin: miter; stroke-miterlimit: 4; fill: rgb(184,66,151); fill-rule: nonzero; opacity: 1;"  transform=" translate(0, 0)" d="M -112.19203 -64.59058 C -113.92431 -66.02888 -114.97531000000001 -68.12673000000001 -115.09015000000001 -70.37535 C -115.20499000000001 -72.62397 -114.37319000000001 -74.81797999999999 -112.79647000000001 -76.42528 L -106.94827000000001 -82.3869 L -106.94827000000001 -82.3869 C -103.75540000000001 -85.64169 -98.59459000000001 -85.88859 -95.10559 -82.95345999999999 L -31.56893000000001 -29.503159999999994 L -31.56893000000001 -29.503159999999994 C -29.84001000000001 -28.048699999999993 -28.84150000000001 -25.905079999999995 -28.840530000000008 -23.645739999999993 C -28.83956000000001 -21.386399999999995 -29.83621000000001 -19.241919999999993 -31.563880000000008 -17.785969999999992 L -95.1072 35.76358000000001 L -95.1072 35.76358000000001 C -98.59449000000001 38.70240000000001 -103.75729000000001 38.45764000000001 -106.9509 35.20208000000001 L -112.78634000000001 29.25346000000001 L -112.78634000000001 29.25346000000001 C -114.36350000000002 27.64571000000001 -115.19371000000001 25.44996000000001 -115.07479000000001 23.20092000000001 C -114.95587 20.95188000000001 -113.89874 18.85593000000001 -112.16082 17.42347000000001 L -69.67741000000001 -17.593129999999988 L -69.67741000000001 -17.593129999999988 C -67.93425 -19.029919999999986 -66.92280000000001 -21.169349999999987 -66.91874000000001 -23.42831999999999 C -66.91468000000002 -25.68728999999999 -67.91843000000001 -27.83034999999999 -69.65641000000001 -29.27338999999999 z M 115.10065 79.38931 C 115.10065 82.4888 112.58802 85.00143 109.48853 85.00143 L -7.392240000000001 85.00143 L -7.392240000000001 85.00143 C -10.49173 85.00143 -13.004360000000002 82.4888 -13.004360000000002 79.38931 L -13.004360000000002 68.65653999999999 L -13.004360000000002 68.65653999999999 C -13.004360000000002 65.55704999999999 -10.491730000000002 63.044419999999995 -7.392240000000002 63.044419999999995 L 109.48853 63.044419999999995 L 109.48853 63.044419999999995 C 112.58802 63.044419999999995 115.10065 65.55704999999999 115.10065 68.65653999999999 z" stroke-linecap="round" />
</g>
</svg>